<?xml version="1.0" encoding="utf-8"?>
<!-- Generator: Adobe Illustrator 16.0.3, SVG Export Plug-In . SVG Version: 6.00 Build 0)  -->
<!DOCTYPE svg PUBLIC "-//W3C//DTD SVG 1.1//EN" "http://www.w3.org/Graphics/SVG/1.1/DTD/svg11.dtd">
<svg version="1.1" id="Layer_1" xmlns="http://www.w3.org/2000/svg" xmlns:xlink="http://www.w3.org/1999/xlink" x="0px" y="0px"
	 width="246.431px" height="54.993px" viewBox="355 253 246.431 54.993" enable-background="new 355 253 246.431 54.993"
	 xml:space="preserve">
<g>
	<polygon fill="#6A472B" points="408.101,305.875 357.226,255 408.101,255 	"/>
	<polygon fill="#372516" points="408.101,305.875 357.226,305.875 357.226,255 	"/>
</g>
<g>
	<g opacity="0.45">
		<path d="M364.012,289.771c0-1.191,0.438-2.549,1.312-4.068c0.875-1.521,2.037-2.855,3.488-4.006
			c1.45-1.148,2.88-1.723,4.288-1.723c1.045,0,1.568,0.35,1.568,1.047c0,0.344-0.128,0.592-0.384,0.742
			c-0.171-0.234-0.544-0.351-1.12-0.351c-1.094,0-2.16,0.498-3.2,1.494c-1.04,0.995-1.838,2.103-2.396,3.319
			c-0.558,1.219-0.836,2.252-0.836,3.1c0,0.89,0.343,1.335,1.029,1.335c0.921,0,2.045-0.772,3.373-2.32
			c1.328-1.546,2.485-3.58,3.47-6.103l1.248-3.175l1.248-3.016c0.12-0.29,0.236-0.565,0.349-0.827l1.976,1.975l-0.309,0.639
			c-0.896,1.796-1.728,3.8-2.496,6.009c-0.768,2.21-1.152,4.091-1.152,5.642c0,0.51,0.048,0.854,0.144,1.033
			c0.096,0.182,0.261,0.271,0.496,0.271c0.725,0,1.557-0.424,2.496-1.271c0.938-0.848,1.76-1.992,2.464-3.433l0.608,0.508
			c-0.704,1.761-1.675,3.198-2.912,4.314c-1.238,1.116-2.464,1.674-3.68,1.674c-1.558,0-2.336-0.947-2.336-2.843
			c0-0.485,0.085-1.176,0.256-2.064c-1.051,1.527-2.133,2.749-3.249,3.664c-1.115,0.914-2.133,1.371-3.055,1.371
			c-0.696,0-1.318-0.25-1.866-0.75C364.287,291.459,364.012,290.73,364.012,289.771z"/>
		<path d="M381.516,285.361c0-1.789,0.228-3.586,0.682-5.391l3.356,3.358c-0.105,0.814-0.158,1.611-0.158,2.393
			c0,2.131,0.48,3.928,1.44,5.393c0.96,1.464,2.413,2.195,4.36,2.195c1.176,0,2.355-0.269,3.536-0.805l1.192,1.188
			c-1.772,1.024-3.668,1.539-5.688,1.539c-2.854,0-5.02-0.967-6.5-2.896C382.256,290.402,381.516,288.079,381.516,285.361z"/>
		<path d="M377.449,275.222c0.365-0.85,0.685-1.548,0.963-2.093c0.362-0.712,0.762-1.451,1.2-2.217
			c0.437-0.766,0.837-1.325,1.2-1.676c0.362-0.351,0.704-0.526,1.024-0.526c0.234,0,0.442,0.09,0.624,0.271
			c0.181,0.181,0.272,0.41,0.272,0.686c0,0.447-0.384,1.468-1.152,3.063l-2.156,4.467L377.449,275.222z"/>
		<path d="M394.731,292.505c0.907-0.412,1.815-0.981,2.725-1.711c2.093-1.678,3.7-3.688,4.82-6.032l1.04,0.68
			c-1.52,2.877-3.407,5.229-5.66,7.053c-0.563,0.456-1.141,0.855-1.732,1.197L394.731,292.505z M382.197,279.971
			c0.419-1.666,1.032-3.337,1.838-5.015c1.68-3.495,3.847-6.363,6.5-8.604c2.653-2.241,5.313-3.362,7.98-3.362
			c2.773,0,4.16,1.226,4.16,3.677c0,1.731-0.534,3.608-1.6,5.632c-1.067,2.024-2.174,3.036-3.32,3.036
			c-0.667,0-1.214-0.413-1.64-1.238c1.013-1.118,1.993-2.449,2.94-3.994c0.946-1.544,1.42-2.796,1.42-3.755
			c0-1.038-0.6-1.558-1.8-1.558c-1.867,0-3.854,1.132-5.96,3.396c-2.107,2.264-3.854,5.046-5.24,8.348
			c-1.004,2.391-1.644,4.655-1.921,6.794L382.197,279.971z"/>
	</g>
	<g>
		<g>
			<g>
				<path fill="#C3BEBA" d="M363.012,288.771c0-1.191,0.438-2.549,1.312-4.068c0.875-1.521,2.037-2.855,3.488-4.006
					c1.45-1.148,2.88-1.723,4.288-1.723c1.045,0,1.568,0.35,1.568,1.047c0,0.344-0.128,0.592-0.384,0.743
					c-0.171-0.234-0.544-0.351-1.12-0.351c-1.094,0-2.16,0.498-3.2,1.494c-1.04,0.995-1.838,2.103-2.396,3.319
					c-0.558,1.219-0.836,2.252-0.836,3.1c0,0.89,0.343,1.335,1.029,1.335c0.921,0,2.045-0.772,3.373-2.32
					c1.328-1.546,2.485-3.58,3.47-6.103l1.248-3.175l1.248-3.016c0.12-0.29,0.236-0.565,0.349-0.827l1.976,1.975l-0.309,0.639
					c-0.896,1.796-1.728,3.8-2.496,6.009c-0.768,2.21-1.152,4.091-1.152,5.642c0,0.51,0.048,0.854,0.144,1.033
					c0.096,0.182,0.261,0.271,0.496,0.271c0.725,0,1.557-0.424,2.496-1.271c0.938-0.848,1.76-1.992,2.464-3.433l0.608,0.508
					c-0.704,1.761-1.675,3.198-2.912,4.314c-1.238,1.116-2.464,1.674-3.68,1.674c-1.558,0-2.336-0.947-2.336-2.843
					c0-0.485,0.085-1.176,0.256-2.064c-1.051,1.527-2.133,2.749-3.249,3.664c-1.115,0.914-2.133,1.371-3.055,1.371
					c-0.696,0-1.318-0.25-1.866-0.75C363.287,290.459,363.012,289.73,363.012,288.771z"/>
				<path fill="#C3BEBA" d="M380.516,284.361c0-1.789,0.228-3.586,0.682-5.391l3.356,3.358c-0.105,0.814-0.158,1.611-0.158,2.393
					c0,2.131,0.48,3.928,1.44,5.393c0.96,1.464,2.413,2.195,4.36,2.195c1.176,0,2.355-0.269,3.536-0.805l1.192,1.188
					c-1.772,1.024-3.668,1.539-5.688,1.539c-2.854,0-5.02-0.967-6.5-2.896C381.256,289.402,380.516,287.079,380.516,284.361z"/>
			</g>
			<g>
				<path fill="#2A2017" d="M376.449,274.222c0.365-0.85,0.685-1.548,0.963-2.093c0.362-0.712,0.762-1.451,1.2-2.217
					c0.437-0.766,0.837-1.325,1.2-1.676c0.362-0.351,0.704-0.526,1.024-0.526c0.234,0,0.442,0.09,0.624,0.271
					c0.181,0.181,0.272,0.41,0.272,0.686c0,0.447-0.384,1.468-1.152,3.063l-2.156,4.467L376.449,274.222z"/>
				<path fill="#2A2017" d="M393.731,291.505c0.907-0.412,1.815-0.981,2.725-1.711c2.093-1.678,3.7-3.688,4.82-6.032l1.04,0.68
					c-1.52,2.877-3.407,5.229-5.66,7.053c-0.563,0.456-1.141,0.855-1.732,1.197L393.731,291.505z M381.197,278.971
					c0.419-1.666,1.032-3.337,1.838-5.015c1.68-3.495,3.847-6.363,6.5-8.604c2.653-2.241,5.313-3.362,7.98-3.362
					c2.773,0,4.16,1.226,4.16,3.677c0,1.731-0.534,3.608-1.6,5.632c-1.067,2.024-2.174,3.036-3.32,3.036
					c-0.667,0-1.214-0.413-1.64-1.238c1.013-1.118,1.993-2.449,2.94-3.994c0.946-1.544,1.42-2.796,1.42-3.755
					c0-1.038-0.6-1.558-1.8-1.558c-1.867,0-3.854,1.132-5.96,3.396c-2.107,2.264-3.854,5.046-5.24,8.348
					c-1.004,2.391-1.644,4.656-1.921,6.794L381.197,278.971z"/>
			</g>
		</g>
	</g>
</g>
<g>
	<path fill="#FFFFFF" d="M409.083,254v52.993H356V254H409.083 M410.083,253H355v54.993h55.083V253L410.083,253z"/>
</g>
<g>
	<g opacity="0.35">
		<path d="M419.527,281v-18.484h4.405c2.158,0,3.834,0.675,5.027,2.025s1.79,3.248,1.79,5.694v3.098
			c0,2.446-0.605,4.335-1.815,5.668s-2.966,2-5.269,2L419.527,281L419.527,281z M421.85,264.509v14.498h1.866
			c1.633,0,2.827-0.468,3.58-1.404s1.138-2.323,1.155-4.162v-3.278c0-1.948-0.375-3.377-1.124-4.289
			c-0.749-0.91-1.881-1.366-3.396-1.366L421.85,264.509L421.85,264.509z"/>
		<path d="M443.371,276.163h-6.246L435.69,281h-2.388l5.954-18.484h1.993L447.218,281h-2.387L443.371,276.163z M437.734,274.17h5.04
			l-2.526-8.404L437.734,274.17z"/>
		<path d="M458.456,276.328c0-0.922-0.25-1.629-0.749-2.12s-1.401-0.969-2.704-1.435c-1.303-0.466-2.3-0.954-2.99-1.466
			c-0.689-0.512-1.206-1.096-1.549-1.752c-0.343-0.656-0.514-1.407-0.514-2.253c0-1.464,0.489-2.67,1.466-3.618
			c0.977-0.948,2.258-1.422,3.84-1.422c1.083,0,2.048,0.242,2.896,0.726c0.847,0.483,1.498,1.156,1.955,2.019
			c0.457,0.862,0.686,1.809,0.686,2.842h-2.336c0-1.143-0.275-2.027-0.825-2.653c-0.55-0.626-1.341-0.939-2.374-0.939
			c-0.938,0-1.667,0.263-2.184,0.789c-0.517,0.525-0.774,1.263-0.774,2.213c0,0.78,0.279,1.433,0.838,1.958
			c0.56,0.525,1.422,0.996,2.59,1.412c1.819,0.602,3.121,1.343,3.904,2.223c0.782,0.88,1.174,2.031,1.174,3.453
			c0,1.498-0.485,2.698-1.46,3.599c-0.974,0.901-2.298,1.352-3.974,1.352c-1.075,0-2.067-0.234-2.978-0.705
			c-0.909-0.469-1.625-1.129-2.146-1.98c-0.521-0.851-0.781-1.826-0.781-2.926h2.336c0,1.143,0.319,2.031,0.958,2.666
			c0.64,0.635,1.51,0.952,2.609,0.952c1.023,0,1.794-0.262,2.311-0.787C458.198,277.951,458.456,277.234,458.456,276.328z"/>
		<path d="M476.092,275.122c-0.102,1.98-0.658,3.498-1.67,4.551c-1.011,1.054-2.438,1.581-4.284,1.581
			c-1.854,0-3.326-0.705-4.418-2.114c-1.092-1.409-1.638-3.32-1.638-5.732v-3.352c0-2.404,0.561-4.304,1.682-5.7
			c1.122-1.396,2.651-2.095,4.591-2.095c1.785,0,3.168,0.533,4.145,1.6c0.979,1.066,1.509,2.594,1.594,4.583h-2.349
			c-0.103-1.506-0.419-2.582-0.952-3.225c-0.533-0.643-1.346-0.965-2.438-0.965c-1.262,0-2.23,0.493-2.907,1.479
			s-1.017,2.431-1.017,4.335v3.39c0,1.871,0.315,3.305,0.946,4.304c0.63,0.999,1.551,1.498,2.761,1.498s2.082-0.3,2.615-0.901
			s0.863-1.68,0.99-3.237H476.092L476.092,275.122z"/>
		<path d="M491.912,273.383c0,2.522-0.537,4.464-1.611,5.827c-1.076,1.362-2.604,2.044-4.584,2.044
			c-1.903,0-3.408-0.662-4.514-1.987c-1.104-1.325-1.677-3.197-1.719-5.618v-3.479c0-2.471,0.545-4.407,1.637-5.808
			c1.092-1.401,2.615-2.101,4.57-2.101c1.946,0,3.465,0.671,4.551,2.012c1.088,1.341,1.645,3.256,1.67,5.745V273.383z
			 M489.59,270.146c0-1.955-0.319-3.409-0.959-4.361c-0.639-0.952-1.619-1.428-2.938-1.428c-1.277,0-2.244,0.482-2.9,1.447
			c-0.656,0.965-0.988,2.387-0.996,4.266v3.313c0,1.887,0.328,3.326,0.982,4.316c0.655,0.99,1.637,1.485,2.938,1.485
			c1.306,0,2.271-0.457,2.896-1.371c0.627-0.914,0.953-2.315,0.979-4.202L489.59,270.146L489.59,270.146z"/>
		<path d="M508.229,281h-2.337l-7.399-14.244V281h-2.336v-18.484h2.336l7.426,14.308v-14.308h2.311V281L508.229,281z"/>
		<path d="M520.979,276.328c0-0.922-0.25-1.629-0.75-2.12c-0.498-0.491-1.4-0.969-2.703-1.435c-1.306-0.465-2.302-0.954-2.99-1.466
			c-0.689-0.512-1.207-1.096-1.549-1.752c-0.345-0.656-0.515-1.407-0.515-2.253c0-1.464,0.488-2.67,1.466-3.618
			c0.979-0.948,2.258-1.422,3.842-1.422c1.082,0,2.047,0.242,2.895,0.726c0.847,0.483,1.498,1.156,1.955,2.019
			c0.457,0.862,0.687,1.809,0.687,2.842h-2.336c0-1.143-0.275-2.027-0.826-2.653c-0.549-0.626-1.342-0.939-2.373-0.939
			c-0.939,0-1.668,0.263-2.185,0.789c-0.518,0.525-0.774,1.263-0.774,2.213c0,0.78,0.278,1.433,0.838,1.958
			c0.559,0.525,1.422,0.996,2.59,1.412c1.82,0.602,3.121,1.343,3.904,2.223s1.174,2.031,1.174,3.453
			c0,1.498-0.486,2.698-1.459,3.599c-0.975,0.901-2.299,1.352-3.975,1.352c-1.074,0-2.066-0.234-2.978-0.705
			c-0.91-0.469-1.625-1.129-2.146-1.98c-0.521-0.851-0.779-1.826-0.779-2.926h2.336c0,1.143,0.318,2.031,0.957,2.666
			c0.641,0.635,1.51,0.952,2.609,0.952c1.024,0,1.795-0.262,2.311-0.787C520.721,277.949,520.979,277.234,520.979,276.328z"/>
		<path d="M538.043,262.516v13.14c-0.018,1.752-0.525,3.123-1.522,4.113c-1,0.99-2.392,1.485-4.179,1.485
			c-1.828,0-3.225-0.484-4.188-1.454c-0.965-0.97-1.455-2.351-1.474-4.145v-13.14h2.312v13.041c0,1.243,0.266,2.171,0.793,2.785
			c0.529,0.613,1.383,0.919,2.559,0.919c1.187,0,2.043-0.307,2.57-0.919c0.529-0.613,0.795-1.542,0.795-2.785v-13.041
			L538.043,262.516L538.043,262.516z"/>
		<path d="M544.609,279.007h7.248V281h-9.584v-18.484h2.336V279.007z"/>
		<path d="M562.588,264.509h-4.863V281h-2.321v-16.491h-4.851v-1.993h12.035V264.509z"/>
		<path d="M568.393,281h-2.323v-18.484h2.323V281z"/>
		<path d="M585.191,281h-2.337l-7.401-14.244V281h-2.336v-18.484h2.336l7.428,14.308v-14.308h2.312L585.191,281L585.191,281z"/>
		<path d="M601.43,278.702l-0.405,0.508c-1.168,1.362-2.877,2.044-5.13,2.044c-1.995,0-3.563-0.662-4.702-1.987
			c-1.14-1.325-1.722-3.197-1.746-5.618v-3.631c0-2.59,0.52-4.53,1.555-5.821c1.037-1.291,2.588-1.936,4.654-1.936
			c1.76,0,3.137,0.489,4.131,1.466c0.996,0.978,1.543,2.376,1.645,4.196h-2.321c-0.095-1.151-0.414-2.05-0.959-2.698
			c-0.548-0.647-1.373-0.971-2.482-0.971c-1.328,0-2.301,0.434-2.92,1.301c-0.617,0.868-0.939,2.253-0.965,4.158v3.771
			c0,1.862,0.354,3.29,1.065,4.285s1.73,1.492,3.062,1.492c1.252,0,2.205-0.303,2.854-0.91l0.344-0.316v-4.246h-3.377v-1.993h5.699
			L601.43,278.702L601.43,278.702z"/>
	</g>
	<g>
		<g>
			<path fill="#FFFFFF" d="M419.527,280v-18.484h4.405c2.158,0,3.834,0.675,5.027,2.025s1.79,3.248,1.79,5.694v3.098
				c0,2.446-0.605,4.335-1.815,5.668s-2.966,2-5.269,2L419.527,280L419.527,280z M421.85,263.509v14.498h1.866
				c1.633,0,2.827-0.468,3.58-1.404s1.138-2.323,1.155-4.162v-3.278c0-1.948-0.375-3.377-1.124-4.289
				c-0.749-0.91-1.881-1.366-3.396-1.366L421.85,263.509L421.85,263.509z"/>
			<path fill="#FFFFFF" d="M443.371,275.163h-6.246L435.69,280h-2.388l5.954-18.484h1.993L447.218,280h-2.387L443.371,275.163z
				 M437.734,273.17h5.04l-2.526-8.404L437.734,273.17z"/>
			<path fill="#FFFFFF" d="M458.456,275.328c0-0.922-0.25-1.629-0.749-2.12s-1.401-0.969-2.704-1.435
				c-1.303-0.466-2.3-0.954-2.99-1.466c-0.689-0.512-1.206-1.096-1.549-1.752c-0.343-0.656-0.514-1.407-0.514-2.253
				c0-1.464,0.489-2.67,1.466-3.618c0.977-0.948,2.258-1.422,3.84-1.422c1.083,0,2.048,0.242,2.896,0.726
				c0.847,0.483,1.498,1.156,1.955,2.019c0.457,0.862,0.686,1.809,0.686,2.842h-2.336c0-1.143-0.275-2.027-0.825-2.653
				c-0.55-0.626-1.341-0.939-2.374-0.939c-0.938,0-1.667,0.263-2.184,0.789c-0.517,0.525-0.774,1.263-0.774,2.213
				c0,0.78,0.279,1.433,0.838,1.958c0.56,0.525,1.422,0.996,2.59,1.412c1.819,0.602,3.121,1.343,3.904,2.223
				c0.782,0.88,1.174,2.031,1.174,3.453c0,1.498-0.485,2.698-1.46,3.599c-0.974,0.901-2.298,1.352-3.974,1.352
				c-1.075,0-2.067-0.234-2.978-0.705c-0.909-0.47-1.625-1.13-2.146-1.98c-0.521-0.85-0.781-1.826-0.781-2.926h2.336
				c0,1.143,0.319,2.031,0.958,2.666c0.64,0.635,1.51,0.952,2.609,0.952c1.023,0,1.794-0.262,2.311-0.787
				C458.198,276.951,458.456,276.234,458.456,275.328z"/>
			<path fill="#FFFFFF" d="M476.092,274.122c-0.102,1.98-0.658,3.498-1.67,4.551c-1.011,1.054-2.438,1.581-4.284,1.581
				c-1.854,0-3.326-0.705-4.418-2.114c-1.092-1.409-1.638-3.32-1.638-5.732v-3.352c0-2.404,0.561-4.304,1.682-5.7
				c1.122-1.396,2.651-2.095,4.591-2.095c1.785,0,3.168,0.533,4.145,1.6c0.979,1.066,1.509,2.594,1.594,4.583h-2.349
				c-0.103-1.506-0.419-2.582-0.952-3.225c-0.533-0.643-1.346-0.965-2.438-0.965c-1.262,0-2.23,0.493-2.907,1.479
				s-1.017,2.431-1.017,4.335v3.39c0,1.871,0.315,3.305,0.946,4.304c0.63,0.999,1.551,1.498,2.761,1.498s2.082-0.3,2.615-0.901
				s0.863-1.68,0.99-3.237H476.092L476.092,274.122z"/>
			<path fill="#FFFFFF" d="M491.912,272.383c0,2.522-0.537,4.464-1.611,5.827c-1.076,1.363-2.604,2.044-4.584,2.044
				c-1.903,0-3.408-0.662-4.514-1.987c-1.104-1.325-1.677-3.197-1.719-5.618v-3.479c0-2.471,0.545-4.407,1.637-5.808
				c1.092-1.401,2.615-2.101,4.57-2.101c1.946,0,3.465,0.671,4.551,2.012c1.088,1.341,1.645,3.256,1.67,5.745V272.383z
				 M489.59,269.146c0-1.955-0.319-3.409-0.959-4.361c-0.639-0.952-1.619-1.428-2.938-1.428c-1.277,0-2.244,0.482-2.9,1.447
				c-0.656,0.965-0.988,2.387-0.996,4.266v3.313c0,1.887,0.328,3.326,0.982,4.316c0.655,0.99,1.637,1.485,2.938,1.485
				c1.306,0,2.271-0.457,2.896-1.371c0.627-0.914,0.953-2.315,0.979-4.202L489.59,269.146L489.59,269.146z"/>
			<path fill="#FFFFFF" d="M508.229,280h-2.337l-7.399-14.244V280h-2.336v-18.484h2.336l7.426,14.308v-14.308h2.311V280L508.229,280
				z"/>
			<path fill="#FFFFFF" d="M520.979,275.328c0-0.922-0.25-1.629-0.75-2.12c-0.498-0.491-1.4-0.969-2.703-1.435
				c-1.306-0.465-2.302-0.954-2.99-1.466c-0.689-0.512-1.207-1.096-1.549-1.752c-0.345-0.656-0.515-1.407-0.515-2.253
				c0-1.464,0.488-2.67,1.466-3.618c0.979-0.948,2.258-1.422,3.842-1.422c1.082,0,2.047,0.242,2.895,0.726
				c0.847,0.483,1.498,1.156,1.955,2.019c0.457,0.862,0.687,1.809,0.687,2.842h-2.336c0-1.143-0.275-2.027-0.826-2.653
				c-0.549-0.626-1.342-0.939-2.373-0.939c-0.939,0-1.668,0.263-2.185,0.789c-0.518,0.525-0.774,1.263-0.774,2.213
				c0,0.78,0.278,1.433,0.838,1.958c0.559,0.525,1.422,0.996,2.59,1.412c1.82,0.602,3.121,1.343,3.904,2.223
				s1.174,2.031,1.174,3.453c0,1.498-0.486,2.698-1.459,3.599c-0.975,0.901-2.299,1.352-3.975,1.352
				c-1.074,0-2.066-0.234-2.978-0.705c-0.91-0.47-1.625-1.13-2.146-1.98c-0.521-0.851-0.779-1.826-0.779-2.926h2.336
				c0,1.143,0.318,2.031,0.957,2.666c0.641,0.635,1.51,0.952,2.609,0.952c1.024,0,1.795-0.262,2.311-0.787
				C520.721,276.949,520.979,276.234,520.979,275.328z"/>
			<path fill="#FFFFFF" d="M538.043,261.516v13.14c-0.018,1.752-0.525,3.123-1.522,4.113c-1,0.99-2.392,1.485-4.179,1.485
				c-1.828,0-3.225-0.484-4.188-1.454c-0.965-0.97-1.455-2.351-1.474-4.145v-13.14h2.312v13.041c0,1.243,0.266,2.171,0.793,2.785
				c0.529,0.613,1.383,0.919,2.559,0.919c1.187,0,2.043-0.307,2.57-0.919c0.529-0.613,0.795-1.542,0.795-2.785v-13.041
				L538.043,261.516L538.043,261.516z"/>
			<path fill="#FFFFFF" d="M544.609,278.007h7.248V280h-9.584v-18.484h2.336V278.007z"/>
			<path fill="#FFFFFF" d="M562.588,263.509h-4.863V280h-2.321v-16.491h-4.851v-1.993h12.035V263.509z"/>
			<path fill="#FFFFFF" d="M568.393,280h-2.323v-18.484h2.323V280z"/>
			<path fill="#FFFFFF" d="M585.191,280h-2.337l-7.401-14.244V280h-2.336v-18.484h2.336l7.428,14.308v-14.308h2.312L585.191,280
				L585.191,280z"/>
			<path fill="#FFFFFF" d="M601.43,277.702l-0.405,0.508c-1.168,1.363-2.877,2.044-5.13,2.044c-1.995,0-3.563-0.662-4.702-1.987
				c-1.14-1.325-1.722-3.197-1.746-5.618v-3.631c0-2.59,0.52-4.53,1.555-5.821c1.037-1.291,2.588-1.936,4.654-1.936
				c1.76,0,3.137,0.489,4.131,1.466c0.996,0.978,1.543,2.376,1.645,4.196h-2.321c-0.095-1.151-0.414-2.05-0.959-2.698
				c-0.548-0.647-1.373-0.971-2.482-0.971c-1.328,0-2.301,0.434-2.92,1.301c-0.617,0.868-0.939,2.253-0.965,4.158v3.771
				c0,1.862,0.354,3.29,1.065,4.285s1.73,1.492,3.062,1.492c1.252,0,2.205-0.303,2.854-0.91l0.344-0.316v-4.246h-3.377v-1.993h5.699
				L601.43,277.702L601.43,277.702z"/>
		</g>
	</g>
</g>
<g>
	<g opacity="0.35">
		<path d="M425.524,299.586c0-0.297-0.112-0.552-0.336-0.766c-0.225-0.213-0.656-0.463-1.298-0.75
			c-0.745-0.308-1.27-0.57-1.573-0.789c-0.305-0.219-0.533-0.467-0.685-0.746c-0.15-0.278-0.227-0.61-0.227-0.996
			c0-0.688,0.251-1.26,0.754-1.715c0.502-0.455,1.145-0.684,1.926-0.684c0.823,0,1.484,0.239,1.984,0.719
			c0.5,0.479,0.75,1.094,0.75,1.844h-1.375c0-0.38-0.128-0.704-0.384-0.973c-0.255-0.269-0.58-0.402-0.977-0.402
			c-0.406,0-0.726,0.105-0.957,0.314c-0.231,0.211-0.348,0.492-0.348,0.846c0,0.281,0.084,0.507,0.254,0.678
			c0.169,0.172,0.577,0.396,1.223,0.678c1.026,0.402,1.725,0.795,2.094,1.179c0.37,0.383,0.556,0.868,0.556,1.459
			c0,0.735-0.253,1.323-0.758,1.765c-0.506,0.44-1.184,0.661-2.031,0.661c-0.88,0-1.594-0.252-2.142-0.758
			c-0.547-0.505-0.819-1.146-0.819-1.922h1.391c0.017,0.469,0.159,0.836,0.43,1.102c0.271,0.266,0.651,0.398,1.142,0.398
			c0.458,0,0.807-0.104,1.047-0.31C425.404,300.213,425.524,299.936,425.524,299.586z"/>
		<path d="M432.814,297.133c0-1.229,0.298-2.201,0.895-2.918c0.596-0.716,1.383-1.074,2.364-1.074c0.979,0,1.766,0.351,2.362,1.047
			c0.597,0.698,0.902,1.648,0.919,2.853v0.891c0,1.226-0.298,2.193-0.892,2.906c-0.594,0.714-1.387,1.07-2.375,1.07
			c-0.979,0-1.765-0.347-2.355-1.039c-0.592-0.692-0.897-1.63-0.918-2.813V297.133L432.814,297.133z M434.197,297.93
			c0,0.87,0.17,1.555,0.512,2.052c0.34,0.497,0.801,0.745,1.379,0.745c1.219,0,1.846-0.88,1.883-2.641v-0.953
			c0-0.863-0.172-1.548-0.516-2.051c-0.344-0.502-0.805-0.754-1.383-0.754c-0.568,0-1.023,0.252-1.363,0.754
			c-0.342,0.503-0.512,1.184-0.512,2.043V297.93z"/>
		<path d="M447.027,301.75h-1.384v-12h1.384V301.75z"/>
		<path d="M457.912,301.008c-0.458,0.601-1.128,0.898-2.008,0.898c-0.767,0-1.345-0.265-1.734-0.793
			c-0.391-0.528-0.589-1.298-0.594-2.31v-5.508h1.375v5.406c0,1.317,0.396,1.977,1.188,1.977c0.839,0,1.417-0.375,1.734-1.125
			v-6.258h1.383v8.453h-1.313L457.912,301.008z"/>
		<path d="M467.545,291.25v2.047h1.273v1.117h-1.273v5.249c0,0.333,0.055,0.587,0.164,0.759s0.297,0.258,0.563,0.258
			c0.183,0,0.366-0.03,0.555-0.094l-0.016,1.165c-0.313,0.104-0.634,0.155-0.962,0.155c-0.547,0-0.964-0.195-1.25-0.586
			c-0.286-0.392-0.43-0.942-0.43-1.656v-5.25h-1.289v-1.117h1.289v-2.047H467.545z"/>
		<path d="M476.461,291.055c0,0.234-0.065,0.43-0.195,0.586s-0.327,0.234-0.594,0.234c-0.261,0-0.456-0.078-0.586-0.234
			s-0.195-0.352-0.195-0.586s0.065-0.432,0.195-0.594c0.13-0.161,0.325-0.242,0.586-0.242s0.457,0.082,0.59,0.246
			C476.396,290.629,476.461,290.826,476.461,291.055z M476.352,301.75h-1.383v-8.453h1.383V301.75z"/>
		<path d="M484.525,291.055c0,0.234-0.064,0.43-0.195,0.586c-0.129,0.156-0.328,0.234-0.594,0.234c-0.261,0-0.455-0.078-0.586-0.234
			c-0.13-0.156-0.195-0.352-0.195-0.586s0.065-0.432,0.195-0.594c0.131-0.161,0.325-0.242,0.586-0.242
			c0.262,0,0.457,0.082,0.59,0.246S484.525,290.826,484.525,291.055z M484.416,301.75h-1.383v-8.453h1.383V301.75z"/>
		<path d="M499.662,301.75v-7.336h-1.103v-1.117h1.103v-0.977c0.016-0.859,0.231-1.529,0.651-2.012
			c0.419-0.481,1.013-0.724,1.777-0.724c0.275,0,0.555,0.044,0.836,0.132l-0.069,1.165c-0.199-0.047-0.41-0.069-0.634-0.069
			c-0.787,0-1.18,0.562-1.18,1.686v0.799h1.445v1.117h-1.445v7.336H499.662L499.662,301.75z"/>
		<path d="M510.115,291.055c0,0.234-0.064,0.43-0.195,0.586c-0.129,0.156-0.328,0.234-0.594,0.234c-0.26,0-0.455-0.078-0.586-0.234
			c-0.129-0.156-0.195-0.352-0.195-0.586s0.066-0.432,0.195-0.594c0.131-0.161,0.326-0.242,0.586-0.242
			c0.262,0,0.457,0.082,0.59,0.246S510.115,290.826,510.115,291.055z M510.006,301.75h-1.383v-8.453h1.383V301.75z"/>
		<path d="M517.883,293.297l0.039,0.914c0.537-0.713,1.224-1.07,2.055-1.07c1.496,0,2.255,0.998,2.273,2.992v5.617h-1.375v-5.555
			c0-0.661-0.109-1.131-0.332-1.41c-0.221-0.278-0.553-0.418-0.996-0.418c-0.344,0-0.651,0.115-0.926,0.344
			c-0.273,0.229-0.492,0.529-0.66,0.898v6.141h-1.383v-8.453H517.883z"/>
		<path d="M533.072,301.75c-0.082-0.182-0.144-0.489-0.181-0.922c-0.487,0.719-1.112,1.078-1.875,1.078
			c-0.766,0-1.362-0.215-1.793-0.646c-0.43-0.43-0.645-1.035-0.645-1.815c0-0.859,0.293-1.541,0.875-2.047
			c0.584-0.506,1.383-0.764,2.397-0.773h1.017v-0.898c0-0.504-0.111-0.863-0.336-1.078c-0.224-0.213-0.564-0.319-1.023-0.319
			c-0.416,0-0.754,0.124-1.016,0.371c-0.26,0.247-0.392,0.562-0.392,0.94h-1.383c0-0.432,0.129-0.845,0.383-1.238
			c0.257-0.393,0.601-0.7,1.031-0.926c0.435-0.224,0.914-0.336,1.445-0.336c0.865,0,1.522,0.215,1.973,0.646
			c0.451,0.43,0.683,1.057,0.691,1.879v4.266c0.006,0.651,0.094,1.218,0.266,1.695v0.125L533.072,301.75L533.072,301.75z
			 M531.229,300.648c0.34,0,0.661-0.095,0.969-0.281c0.309-0.188,0.531-0.422,0.672-0.703v-2.016h-0.781
			c-0.656,0.011-1.174,0.157-1.555,0.44c-0.379,0.284-0.57,0.683-0.57,1.191c0,0.479,0.098,0.827,0.289,1.043
			C530.445,300.541,530.771,300.648,531.229,300.648z"/>
		<path d="M542.09,293.297l0.039,0.914c0.535-0.713,1.221-1.07,2.055-1.07c1.494,0,2.253,0.998,2.273,2.992v5.617h-1.375v-5.555
			c0-0.661-0.111-1.131-0.332-1.41c-0.223-0.278-0.555-0.418-0.996-0.418c-0.344,0-0.651,0.115-0.926,0.344
			c-0.273,0.229-0.494,0.529-0.66,0.898v6.141h-1.383v-8.453H542.09z"/>
		<path d="M555.865,300.727c0.457,0,0.823-0.142,1.102-0.426c0.275-0.283,0.426-0.688,0.453-1.215h1.305
			c-0.03,0.813-0.319,1.486-0.862,2.021c-0.545,0.533-1.211,0.801-1.996,0.801c-1.047,0-1.846-0.329-2.396-0.988
			c-0.551-0.658-0.823-1.639-0.823-2.941v-0.93c0-1.274,0.272-2.246,0.819-2.909c0.547-0.664,1.345-0.996,2.392-0.996
			c0.862,0,1.551,0.272,2.059,0.819s0.777,1.295,0.809,2.242h-1.305c-0.031-0.625-0.182-1.095-0.449-1.406
			c-0.27-0.313-0.641-0.469-1.112-0.469c-0.615,0-1.07,0.202-1.367,0.604c-0.297,0.404-0.451,1.066-0.461,1.988V298
			c0,0.995,0.146,1.698,0.44,2.109C554.764,300.521,555.229,300.727,555.865,300.727z"/>
		<path d="M566.318,291.055c0,0.234-0.064,0.43-0.195,0.586c-0.129,0.156-0.328,0.234-0.594,0.234c-0.261,0-0.455-0.078-0.586-0.234
			c-0.13-0.156-0.195-0.352-0.195-0.586s0.065-0.432,0.195-0.594c0.131-0.161,0.325-0.242,0.586-0.242
			c0.262,0,0.457,0.082,0.59,0.246S566.318,290.826,566.318,291.055z M566.209,301.75h-1.383v-8.453h1.383V301.75z"/>
		<path d="M577.133,301.75c-0.082-0.182-0.143-0.489-0.18-0.922c-0.488,0.719-1.113,1.078-1.875,1.078
			c-0.767,0-1.363-0.215-1.793-0.646c-0.431-0.43-0.646-1.035-0.646-1.815c0-0.859,0.293-1.541,0.875-2.047
			c0.584-0.506,1.383-0.764,2.398-0.773h1.016v-0.898c0-0.504-0.11-0.863-0.336-1.078c-0.223-0.213-0.563-0.319-1.022-0.319
			c-0.416,0-0.755,0.124-1.017,0.371c-0.26,0.247-0.391,0.562-0.391,0.94h-1.383c0-0.432,0.129-0.845,0.383-1.238
			c0.256-0.393,0.6-0.7,1.031-0.926c0.434-0.224,0.914-0.336,1.444-0.336c0.865,0,1.523,0.215,1.974,0.646
			c0.451,0.43,0.682,1.057,0.69,1.879v4.266c0.006,0.651,0.095,1.218,0.267,1.695v0.125L577.133,301.75L577.133,301.75z
			 M575.289,300.648c0.34,0,0.662-0.095,0.969-0.281c0.31-0.188,0.531-0.422,0.672-0.703v-2.016h-0.78
			c-0.656,0.011-1.175,0.157-1.556,0.44c-0.379,0.284-0.569,0.683-0.569,1.191c0,0.479,0.098,0.827,0.289,1.043
			C574.506,300.541,574.832,300.648,575.289,300.648z"/>
		<path d="M588.338,294.594c-0.19-0.035-0.399-0.055-0.625-0.055c-0.707,0-1.203,0.389-1.483,1.164v6.047h-1.384v-8.453h1.345
			l0.022,0.859c0.371-0.678,0.896-1.016,1.57-1.016c0.219,0,0.401,0.036,0.547,0.108L588.338,294.594z"/>
		<path d="M596.988,301.906c-1.054,0-1.859-0.313-2.422-0.941c-0.563-0.627-0.851-1.548-0.859-2.762v-1.023
			c0-1.26,0.272-2.248,0.824-2.965c0.549-0.716,1.315-1.074,2.301-1.074c0.988,0,1.729,0.315,2.219,0.945
			c0.488,0.631,0.738,1.612,0.75,2.945v0.906h-4.719v0.194c0,0.906,0.17,1.565,0.512,1.978c0.34,0.412,0.832,0.616,1.474,0.616
			c0.405,0,0.764-0.075,1.073-0.229c0.31-0.153,0.601-0.396,0.871-0.73l0.72,0.875C599.131,301.484,598.217,301.906,596.988,301.906
			z M596.832,294.328c-0.574,0-0.998,0.197-1.273,0.59c-0.276,0.395-0.434,1.004-0.469,1.832h3.328v-0.188
			c-0.037-0.803-0.182-1.375-0.434-1.72C597.729,294.5,597.348,294.328,596.832,294.328z"/>
	</g>
	<g>
		<g>
			<path fill="#FFFFFF" d="M425.524,298.586c0-0.297-0.112-0.552-0.336-0.766c-0.225-0.213-0.656-0.463-1.298-0.75
				c-0.745-0.307-1.27-0.57-1.573-0.789c-0.305-0.219-0.533-0.467-0.685-0.746c-0.15-0.278-0.227-0.61-0.227-0.996
				c0-0.688,0.251-1.26,0.754-1.715c0.502-0.455,1.145-0.684,1.926-0.684c0.823,0,1.484,0.239,1.984,0.719
				c0.5,0.479,0.75,1.094,0.75,1.844h-1.375c0-0.38-0.128-0.704-0.384-0.973c-0.255-0.269-0.58-0.402-0.977-0.402
				c-0.406,0-0.726,0.105-0.957,0.314c-0.231,0.211-0.348,0.492-0.348,0.846c0,0.281,0.084,0.507,0.254,0.678
				c0.169,0.172,0.577,0.396,1.223,0.678c1.026,0.402,1.725,0.795,2.094,1.178c0.37,0.384,0.556,0.869,0.556,1.46
				c0,0.735-0.253,1.323-0.758,1.765c-0.506,0.44-1.184,0.661-2.031,0.661c-0.88,0-1.594-0.252-2.142-0.758
				c-0.547-0.505-0.819-1.146-0.819-1.922h1.391c0.017,0.469,0.159,0.836,0.43,1.102c0.271,0.266,0.651,0.398,1.142,0.398
				c0.458,0,0.807-0.104,1.047-0.31C425.404,299.213,425.524,298.936,425.524,298.586z"/>
			<path fill="#FFFFFF" d="M432.814,296.133c0-1.229,0.298-2.201,0.895-2.918c0.596-0.716,1.383-1.074,2.364-1.074
				c0.979,0,1.766,0.351,2.362,1.047c0.597,0.698,0.902,1.648,0.919,2.853v0.892c0,1.225-0.298,2.192-0.892,2.905
				c-0.594,0.714-1.387,1.07-2.375,1.07c-0.979,0-1.765-0.347-2.355-1.039c-0.592-0.692-0.897-1.63-0.918-2.813V296.133
				L432.814,296.133z M434.197,296.93c0,0.87,0.17,1.555,0.512,2.052c0.34,0.497,0.801,0.745,1.379,0.745
				c1.219,0,1.846-0.88,1.883-2.641v-0.953c0-0.863-0.172-1.548-0.516-2.051c-0.344-0.502-0.805-0.754-1.383-0.754
				c-0.568,0-1.023,0.252-1.363,0.754c-0.342,0.503-0.512,1.184-0.512,2.043V296.93z"/>
			<path fill="#FFFFFF" d="M447.027,300.75h-1.384v-12h1.384V300.75z"/>
			<path fill="#FFFFFF" d="M457.912,300.008c-0.458,0.601-1.128,0.898-2.008,0.898c-0.767,0-1.345-0.265-1.734-0.793
				c-0.391-0.528-0.589-1.298-0.594-2.31v-5.508h1.375v5.406c0,1.317,0.396,1.977,1.188,1.977c0.839,0,1.417-0.375,1.734-1.125
				v-6.258h1.383v8.453h-1.313L457.912,300.008z"/>
			<path fill="#FFFFFF" d="M467.545,290.25v2.047h1.273v1.117h-1.273v5.249c0,0.333,0.055,0.587,0.164,0.759
				s0.297,0.258,0.563,0.258c0.183,0,0.366-0.03,0.555-0.094l-0.016,1.165c-0.313,0.104-0.634,0.155-0.962,0.155
				c-0.547,0-0.964-0.195-1.25-0.586c-0.286-0.392-0.43-0.942-0.43-1.656v-5.25h-1.289v-1.117h1.289v-2.047H467.545z"/>
			<path fill="#FFFFFF" d="M476.461,290.055c0,0.234-0.065,0.43-0.195,0.586s-0.327,0.234-0.594,0.234
				c-0.261,0-0.456-0.078-0.586-0.234s-0.195-0.352-0.195-0.586s0.065-0.432,0.195-0.594c0.13-0.161,0.325-0.242,0.586-0.242
				s0.457,0.082,0.59,0.246C476.396,289.629,476.461,289.826,476.461,290.055z M476.352,300.75h-1.383v-8.453h1.383V300.75z"/>
			<path fill="#FFFFFF" d="M484.525,290.055c0,0.234-0.064,0.43-0.195,0.586c-0.129,0.156-0.328,0.234-0.594,0.234
				c-0.261,0-0.455-0.078-0.586-0.234c-0.13-0.156-0.195-0.352-0.195-0.586s0.065-0.432,0.195-0.594
				c0.131-0.161,0.325-0.242,0.586-0.242c0.262,0,0.457,0.082,0.59,0.246S484.525,289.826,484.525,290.055z M484.416,300.75h-1.383
				v-8.453h1.383V300.75z"/>
			<path fill="#FFFFFF" d="M499.662,300.75v-7.336h-1.103v-1.117h1.103v-0.977c0.016-0.859,0.231-1.529,0.651-2.012
				c0.419-0.481,1.013-0.724,1.777-0.724c0.275,0,0.555,0.044,0.836,0.132l-0.069,1.165c-0.199-0.047-0.41-0.069-0.634-0.069
				c-0.787,0-1.18,0.562-1.18,1.686v0.799h1.445v1.117h-1.445v7.336H499.662L499.662,300.75z"/>
			<path fill="#FFFFFF" d="M510.115,290.055c0,0.234-0.064,0.43-0.195,0.586c-0.129,0.156-0.328,0.234-0.594,0.234
				c-0.26,0-0.455-0.078-0.586-0.234c-0.129-0.156-0.195-0.352-0.195-0.586s0.066-0.432,0.195-0.594
				c0.131-0.161,0.326-0.242,0.586-0.242c0.262,0,0.457,0.082,0.59,0.246S510.115,289.826,510.115,290.055z M510.006,300.75h-1.383
				v-8.453h1.383V300.75z"/>
			<path fill="#FFFFFF" d="M517.883,292.297l0.039,0.914c0.537-0.713,1.224-1.07,2.055-1.07c1.496,0,2.255,0.998,2.273,2.992v5.617
				h-1.375v-5.555c0-0.661-0.109-1.131-0.332-1.41c-0.221-0.278-0.553-0.418-0.996-0.418c-0.344,0-0.651,0.115-0.926,0.344
				c-0.273,0.229-0.492,0.529-0.66,0.898v6.141h-1.383v-8.453H517.883z"/>
			<path fill="#FFFFFF" d="M533.072,300.75c-0.082-0.182-0.144-0.489-0.181-0.922c-0.487,0.719-1.112,1.078-1.875,1.078
				c-0.766,0-1.362-0.215-1.793-0.646c-0.43-0.43-0.645-1.035-0.645-1.815c0-0.859,0.293-1.541,0.875-2.047
				c0.584-0.506,1.383-0.764,2.397-0.773h1.017v-0.898c0-0.504-0.111-0.863-0.336-1.078c-0.224-0.213-0.564-0.319-1.023-0.319
				c-0.416,0-0.754,0.124-1.016,0.371c-0.26,0.247-0.392,0.562-0.392,0.94h-1.383c0-0.432,0.129-0.845,0.383-1.238
				c0.257-0.393,0.601-0.7,1.031-0.926c0.435-0.224,0.914-0.336,1.445-0.336c0.865,0,1.522,0.215,1.973,0.646
				c0.451,0.43,0.683,1.057,0.691,1.879v4.266c0.006,0.651,0.094,1.218,0.266,1.695v0.125L533.072,300.75L533.072,300.75z
				 M531.229,299.648c0.34,0,0.661-0.095,0.969-0.281c0.309-0.188,0.531-0.422,0.672-0.703v-2.016h-0.781
				c-0.656,0.011-1.174,0.158-1.555,0.44c-0.379,0.284-0.57,0.683-0.57,1.191c0,0.479,0.098,0.827,0.289,1.043
				C530.445,299.541,530.771,299.648,531.229,299.648z"/>
			<path fill="#FFFFFF" d="M542.09,292.297l0.039,0.914c0.535-0.713,1.221-1.07,2.055-1.07c1.494,0,2.253,0.998,2.273,2.992v5.617
				h-1.375v-5.555c0-0.661-0.111-1.131-0.332-1.41c-0.223-0.278-0.555-0.418-0.996-0.418c-0.344,0-0.651,0.115-0.926,0.344
				c-0.273,0.229-0.494,0.529-0.66,0.898v6.141h-1.383v-8.453H542.09z"/>
			<path fill="#FFFFFF" d="M555.865,299.727c0.457,0,0.823-0.142,1.102-0.426c0.275-0.283,0.426-0.688,0.453-1.215h1.305
				c-0.03,0.813-0.319,1.486-0.862,2.021c-0.545,0.533-1.211,0.801-1.996,0.801c-1.047,0-1.846-0.329-2.396-0.988
				c-0.551-0.658-0.823-1.639-0.823-2.94v-0.931c0-1.274,0.272-2.246,0.819-2.909c0.547-0.664,1.345-0.996,2.392-0.996
				c0.862,0,1.551,0.272,2.059,0.819s0.777,1.295,0.809,2.242h-1.305c-0.031-0.625-0.182-1.095-0.449-1.406
				c-0.27-0.313-0.641-0.469-1.112-0.469c-0.615,0-1.07,0.202-1.367,0.604c-0.297,0.404-0.451,1.066-0.461,1.988V297
				c0,0.995,0.146,1.698,0.44,2.109C554.764,299.521,555.229,299.727,555.865,299.727z"/>
			<path fill="#FFFFFF" d="M566.318,290.055c0,0.234-0.064,0.43-0.195,0.586c-0.129,0.156-0.328,0.234-0.594,0.234
				c-0.261,0-0.455-0.078-0.586-0.234c-0.13-0.156-0.195-0.352-0.195-0.586s0.065-0.432,0.195-0.594
				c0.131-0.161,0.325-0.242,0.586-0.242c0.262,0,0.457,0.082,0.59,0.246S566.318,289.826,566.318,290.055z M566.209,300.75h-1.383
				v-8.453h1.383V300.75z"/>
			<path fill="#FFFFFF" d="M577.133,300.75c-0.082-0.182-0.143-0.489-0.18-0.922c-0.488,0.719-1.113,1.078-1.875,1.078
				c-0.767,0-1.363-0.215-1.793-0.646c-0.431-0.43-0.646-1.035-0.646-1.815c0-0.859,0.293-1.541,0.875-2.047
				c0.584-0.506,1.383-0.764,2.398-0.773h1.016v-0.898c0-0.504-0.11-0.863-0.336-1.078c-0.223-0.213-0.563-0.319-1.022-0.319
				c-0.416,0-0.755,0.124-1.017,0.371c-0.26,0.247-0.391,0.562-0.391,0.94h-1.383c0-0.432,0.129-0.845,0.383-1.238
				c0.256-0.393,0.6-0.7,1.031-0.926c0.434-0.224,0.914-0.336,1.444-0.336c0.865,0,1.523,0.215,1.974,0.646
				c0.451,0.43,0.682,1.057,0.69,1.879v4.266c0.006,0.651,0.095,1.218,0.267,1.695v0.125L577.133,300.75L577.133,300.75z
				 M575.289,299.648c0.34,0,0.662-0.095,0.969-0.281c0.31-0.188,0.531-0.422,0.672-0.703v-2.016h-0.78
				c-0.656,0.011-1.175,0.158-1.556,0.44c-0.379,0.284-0.569,0.683-0.569,1.191c0,0.479,0.098,0.827,0.289,1.043
				C574.506,299.541,574.832,299.648,575.289,299.648z"/>
			<path fill="#FFFFFF" d="M588.338,293.594c-0.19-0.035-0.399-0.055-0.625-0.055c-0.707,0-1.203,0.389-1.483,1.164v6.047h-1.384
				v-8.453h1.345l0.022,0.859c0.371-0.678,0.896-1.016,1.57-1.016c0.219,0,0.401,0.036,0.547,0.108L588.338,293.594z"/>
			<path fill="#FFFFFF" d="M596.988,300.906c-1.054,0-1.859-0.313-2.422-0.941c-0.563-0.627-0.851-1.548-0.859-2.762v-1.023
				c0-1.26,0.272-2.248,0.824-2.965c0.549-0.716,1.315-1.074,2.301-1.074c0.988,0,1.729,0.315,2.219,0.945
				c0.488,0.631,0.738,1.612,0.75,2.945v0.906h-4.719v0.194c0,0.906,0.17,1.565,0.512,1.978c0.34,0.412,0.832,0.616,1.474,0.616
				c0.405,0,0.764-0.075,1.073-0.229c0.31-0.153,0.601-0.396,0.871-0.73l0.72,0.875
				C599.131,300.484,598.217,300.906,596.988,300.906z M596.832,293.328c-0.574,0-0.998,0.197-1.273,0.59
				c-0.276,0.395-0.434,1.004-0.469,1.832h3.328v-0.188c-0.037-0.803-0.182-1.375-0.434-1.72
				C597.729,293.5,597.348,293.328,596.832,293.328z"/>
		</g>
	</g>
</g>
</svg>
